<svg xmlns="http://www.w3.org/2000/svg" xml:space="preserve" width="800" height="800" viewBox="0 0 64 64"><path fill="#2f3750" d="M17.123 42.17c-4.838 1.006-8.03 2.491-8.03 4.632C9.093 50.727 19.37 55 32.046 55S55 50.727 55 46.802c0-2.155-2.927-3.721-7.824-4.727l-4.199-22.052L22.209 8 11.278 26.582l12.024-6.559-.002-.003 2.188 4.375z"/>
    <path fill="#262c42"
          d="M47.176 42.075C52.073 43.081 55 44.646 55 46.802 55 50.727 44.723 55 32.046 55c-2.076 0-4.087-.116-6-.325C35.813 53.607 43 50.084 43 46.802V46c3-1 4-3 4.176-3.925"/>
    <path fill="#424a66"
          d="M17.123 42.17c.172-.604 8.365-17.774 8.365-17.774l.949.167L20.75 45c-.687-.219-4.031-1.406-3.627-2.83"/>
    <path fill="#424a66"
          d="M14.229 47.804c.23-1.437 4.438-2.51 6.584-2.49l-2.946-2.23c-4.516.159-7.592 1.037-7.972 3.026-.269 1.411.81 3.126 2.891 4.85 1.597.924 3.689 1.763 6.142 2.441-3.198-2.003-4.946-4.059-4.699-5.597"/>
    <path fill="#262c42"
          d="m23.301 20.021-1.092-2.184-.521-.712-10.41 9.457 12.025-6.559zM46.174 36.811l-3.197-16.787L22.209 8l3.279 2.813 12.543 10.781 3.62 17.547c1.121-.319 3.603-1.332 4.523-2.33"/>
    <path fill="#674172"
          d="M36.688 47.063c5.239-.645 9.333-2.306 10.73-4.086l-1.163-6.521c-2.001 1.588-5.631 3.282-10.011 3.99"/>
    <path fill="#4f3058"
          d="M43 46c3.367-.823 3.819-1.704 4.854-3.023l-1.164-6.521c-1.512 1.199-2.33 1.607-5.079 2.585l1.107 5.584z"/>
    <path fill="#674172"
          d="M27.305 47.05c-5.191-.653-9.243-2.304-10.632-4.073l2.664-5.501c2.072 1.238 5.029 2.39 8.441 2.951"/>
    <path fill="#785083"
          d="m19.337 37.476-1.54 3.18c-.395.854-.646 1.415-.674 1.515-.404 1.424 2.939 2.611 3.627 2.83l1.68-6.036a21 21 0 0 1-3.093-1.489"/>
    <path fill="#f4d08c" d="M37 46a2 2 0 0 1-2 2h-6a2 2 0 0 1-2-2v-4a2 2 0 0 1 2-2h6a2 2 0 0 1 2 2z"/>
    <path fill="#feda96" d="M29 46v-4a2 2 0 0 1 2-2h-2a2 2 0 0 0-2 2v4a2 2 0 0 0 2 2h2a2 2 0 0 1-2-2"/>
    <path fill="#d7af75" d="M35 40h-3a2 2 0 0 1 2 2v4a2 2 0 0 1-2 2h3a2 2 0 0 0 2-2v-4a2 2 0 0 0-2-2"/>
    <path fill="#272223"
          d="m48.035 41.242-4.076-21.406a1 1 0 0 0-.481-.678L22.71 7.135a1 1 0 0 0-1.363.358l-10.93 18.582a1 1 0 0 0 1.341 1.385l11.114-6.063 1.506 3.012-7.88 16.743c-5.572 1.205-8.404 3.104-8.404 5.649 0 4.9 11.193 9.198 23.953 9.198C44.807 56 56 51.702 56 46.802c0-2.484-2.682-4.351-7.965-5.56M17.918 42.83l1.864-3.961c1.871.979 4.064 1.754 6.362 2.258A3 3 0 0 0 26 42v3.845c-4.025-.677-6.806-1.899-8.082-3.015M28 46v-4a1 1 0 0 1 1-1h6a1 1 0 0 1 1 1v4a1 1 0 0 1-1 1h-6a1 1 0 0 1-1-1m9.864-4.844c2.83-.612 5.489-1.648 7.563-2.922l.855 4.496c-1.232 1.154-4.087 2.438-8.282 3.131V42c0-.295-.056-.574-.136-.844M26.383 23.948l-3.279-6.559a1 1 0 0 0-1.789.895l.662 1.323-8.003 4.365 8.594-14.61L42.08 20.66l2.943 15.456c-1.79 1.23-4.795 2.606-8.576 3.272A2.96 2.96 0 0 0 35 39h-6c-.515 0-.992.143-1.416.372-3.178-.568-5.523-1.565-6.947-2.318l5.757-12.232a1 1 0 0 0-.011-.874M32.046 54c-12.735 0-21.953-4.3-21.953-7.198 0-1.267 2.098-2.516 5.683-3.427.033.074.058.151.11.219 1.583 2.018 5.733 3.685 10.881 4.391A2.98 2.98 0 0 0 29 49h6c.884 0 1.672-.392 2.221-1.001 5.198-.698 9.388-2.37 10.984-4.405.055-.069.081-.149.114-.228 3.586.913 5.681 2.163 5.681 3.436C54 49.7 44.781 54 32.046 54"/>
    <path fill="#272223" d="M29.953 43.07h4.187v2h-4.187z"/></svg>