<svg width="1084" height="1028" viewBox="0 0 1084 1028" fill="none" xmlns="http://www.w3.org/2000/svg">
    <path d="M551.529 16C690.539 16 824.354 81.8576 921.07 180.1C1017.87 278.422 1075.88 407.468 1066.08 532.247L1066.03 532.873V533.5C1066.03 808.861 811.538 1012 530.029 1012C390.192 1012 253.599 955.372 156.384 863.556C59.4057 771.963 2.24514 646.075 18.8613 506.865C67.0265 240.585 273.378 16 551.529 16Z" stroke="black" stroke-width="32"/>
    <path d="M766.443 500.324C769.5 504.175 774.85 511.91 774.388 521.998L774.362 522.48L774.293 523.354C773.429 532.313 768.277 539.019 765.163 542.594C761.357 546.963 756.552 551.112 751.61 554.92C741.646 562.598 728.378 570.961 714.124 579.364C699.74 587.844 683.648 596.774 667.79 605.541C651.824 614.368 636.109 623.023 622.062 631.167C593.371 647.801 556.557 670.431 526.642 687.129C511.55 695.553 497.2 703.054 485.464 707.986C479.667 710.423 473.707 712.578 468.177 713.767C465.402 714.363 462.092 714.861 458.584 714.798C455.222 714.738 450.187 714.142 445.155 711.237C436.164 706.047 432.827 696.825 431.532 692.813C429.817 687.503 428.775 681.42 428.069 675.435C426.64 663.317 426.189 647.883 426.145 631.525C426.101 615.019 426.476 596.759 426.843 578.812C427.213 560.747 427.575 542.995 427.53 527.06C427.433 492.503 427.117 448.908 427.884 413.426C428.266 395.734 428.924 379.564 430.073 367.321C430.639 361.289 431.383 355.535 432.45 350.799C432.972 348.484 433.734 345.655 434.934 342.895C435.729 341.068 438.462 334.916 445.155 331.052C451.528 327.373 457.903 327.842 459.901 328.01C462.839 328.257 465.639 328.901 467.906 329.523C472.534 330.794 477.879 332.808 483.382 335.11C494.545 339.782 508.822 346.69 524.26 354.6C555.261 370.483 592.47 391.197 622.052 408.327C649.858 424.428 686.915 444.437 715.419 461.781C729.8 470.532 743.159 479.278 753.045 487.296C757.934 491.261 762.734 495.651 766.443 500.324Z" fill="#008C2A" stroke="black" stroke-width="42"/>
</svg>
