<svg width="1084" height="1028" viewBox="0 0 1084 1028" fill="none" xmlns="http://www.w3.org/2000/svg">
    <path d="M551.529 16C690.539 16 824.354 81.8576 921.07 180.1C1017.87 278.422 1075.88 407.468 1066.08 532.247L1066.03 532.873V533.5C1066.03 808.861 811.538 1012 530.029 1012C390.192 1012 253.599 955.372 156.384 863.556C59.4057 771.963 2.24514 646.075 18.8613 506.865C67.0265 240.585 273.378 16 551.529 16Z" fill="#00B512" stroke="black" stroke-width="32"/>
    <path d="M301.003 590.5C276.481 602.026 262.895 616.287 257.503 621.5C248.902 629.123 221.507 651 221.503 662.5C221.5 671.088 259.439 711.475 280.678 736.314C307.258 767.399 334.561 791.462 358.125 812.228L359 813C388.5 839 409.902 848.065 429 863.07C453.735 882.504 486.545 903.361 525.843 917.911C533.067 920.586 540.289 921.103 544.792 916.888C563.384 899.49 579.831 882.529 593.992 863.07C613.918 835.688 636.695 800.032 663.879 759.472C680.629 734.482 699 712.5 744 631C778.701 568.152 797.775 507.756 819 464C851.5 397 866.603 362.032 884.677 312C893.955 286.315 916 246.312 906 241C871.18 222.502 813.651 176.086 802.044 190.491C791.226 203.918 781.224 230.389 762.896 265.677C749.027 292.382 746.463 323.825 678.09 456.284C645.587 519.252 626.124 554.61 601.137 594.659C547.119 681.237 508.091 751.057 500.529 744.969C467.959 718.748 434.1 687.121 411.417 671.088C391.701 657.152 310.003 586.269 301.003 590.5Z" fill="#98FFA2" stroke="black" stroke-width="2" stroke-linecap="round"/>
</svg>
