<svg width="1084" height="1028" viewBox="0 0 1084 1028" fill="none" xmlns="http://www.w3.org/2000/svg">
    <path d="M531.624 16C392.614 16 258.799 81.8576 162.083 180.1C65.2868 278.422 7.27508 407.468 17.0757 532.247L17.1245 532.873V533.5C17.1245 808.861 271.615 1012 553.124 1012C692.961 1012 829.554 955.372 926.769 863.556C1023.75 771.963 1080.91 646.075 1064.29 506.865C1016.13 240.585 809.775 16 531.624 16Z" stroke="black" stroke-width="32"/>
    <mask id="path-2-inside-1_10_363" fill="white">
        <path d="M662.18 159.765C648.243 145.585 625.45 145.388 611.27 159.325L323.838 441.845C322.037 443.081 320.323 444.497 318.722 446.098L284.781 480.039C282.948 481.872 281.356 483.856 280 485.947C270.626 499.844 271.992 518.869 284.198 531.287L317.845 565.52C320.032 567.744 322.436 569.624 324.991 571.159L608.636 854.806C622.695 868.864 645.489 868.864 659.547 854.806L693.489 820.864C707.548 806.805 707.548 784.011 693.489 769.952L429.645 506.107L695.388 244.906C709.568 230.969 709.764 208.177 695.828 193.997L662.18 159.765Z"/>
    </mask>
    <path d="M662.18 159.765C648.243 145.585 625.45 145.388 611.27 159.325L323.838 441.845C322.037 443.081 320.323 444.497 318.722 446.098L284.781 480.039C282.948 481.872 281.356 483.856 280 485.947C270.626 499.844 271.992 518.869 284.198 531.287L317.845 565.52C320.032 567.744 322.436 569.624 324.991 571.159L608.636 854.806C622.695 868.864 645.489 868.864 659.547 854.806L693.489 820.864C707.548 806.805 707.548 784.011 693.489 769.952L429.645 506.107L695.388 244.906C709.568 230.969 709.764 208.177 695.828 193.997L662.18 159.765Z" fill="#8F8F8F"/>
    <path d="M662.18 159.765L653.622 168.176L653.622 168.176L662.18 159.765ZM611.27 159.325L602.858 150.767L602.858 150.767L611.27 159.325ZM323.838 441.845L332.25 450.403L331.498 451.142L330.629 451.739L323.838 441.845ZM284.781 480.039L276.295 471.554L276.295 471.554L284.781 480.039ZM280 485.947L290.072 492.472L290.011 492.566L289.949 492.658L280 485.947ZM284.198 531.287L275.64 539.699L275.64 539.699L284.198 531.287ZM317.845 565.52L309.287 573.931L309.287 573.931L317.845 565.52ZM324.991 571.159L331.173 560.874L332.435 561.633L333.476 562.674L324.991 571.159ZM608.636 854.806L600.151 863.291L600.151 863.291L608.636 854.806ZM659.547 854.806L668.033 863.291L668.033 863.291L659.547 854.806ZM693.489 820.864L701.974 829.35L693.489 820.864ZM693.489 769.952L685.003 778.437L685.003 778.437L693.489 769.952ZM429.645 506.107L421.16 514.593L412.601 506.034L421.233 497.549L429.645 506.107ZM695.388 244.906L703.8 253.464L703.8 253.464L695.388 244.906ZM695.828 193.997L704.386 185.585L704.386 185.585L695.828 193.997ZM662.18 159.765L653.622 168.176C644.33 158.723 629.135 158.592 619.682 167.883L611.27 159.325L602.858 150.767C621.765 132.184 652.156 132.447 670.738 151.353L662.18 159.765ZM611.27 159.325L619.682 167.883L332.25 450.403L323.838 441.845L315.427 433.287L602.858 150.767L611.27 159.325ZM323.838 441.845L330.629 451.739C329.425 452.565 328.279 453.511 327.207 454.583L318.722 446.098L310.237 437.612C312.366 435.484 314.649 433.597 317.048 431.951L323.838 441.845ZM318.722 446.098L327.207 454.583L293.266 488.524L284.781 480.039L276.295 471.554L310.237 437.612L318.722 446.098ZM284.781 480.039L293.266 488.524C292.039 489.752 290.976 491.076 290.072 492.472L280 485.947L269.929 479.422C271.735 476.635 273.857 473.993 276.295 471.554L284.781 480.039ZM280 485.947L289.949 492.658C283.702 501.918 284.628 514.606 292.756 522.875L284.198 531.287L275.64 539.699C259.355 523.131 257.551 497.77 270.052 479.237L280 485.947ZM284.198 531.287L292.756 522.875L326.403 557.108L317.845 565.52L309.287 573.931L275.64 539.699L284.198 531.287ZM317.845 565.52L326.403 557.108C327.873 558.603 329.478 559.855 331.173 560.874L324.991 571.159L318.809 581.444C315.394 579.392 312.19 576.885 309.287 573.931L317.845 565.52ZM324.991 571.159L333.476 562.674L617.122 846.32L608.636 854.806L600.151 863.291L316.505 579.644L324.991 571.159ZM608.636 854.806L617.121 846.32C626.494 855.693 641.69 855.693 651.062 846.32L659.547 854.806L668.033 863.291C649.287 882.036 618.896 882.036 600.151 863.291L608.636 854.806ZM659.547 854.806L651.062 846.32L685.003 812.379L693.489 820.864L701.974 829.35L668.033 863.291L659.547 854.806ZM693.489 820.864L685.003 812.379C694.376 803.006 694.376 787.81 685.003 778.437L693.489 769.952L701.974 761.467C720.719 780.212 720.719 810.604 701.974 829.35L693.489 820.864ZM693.489 769.952L685.003 778.437L421.16 514.593L429.645 506.107L438.13 497.622L701.974 761.467L693.489 769.952ZM429.645 506.107L421.233 497.549L686.976 236.348L695.388 244.906L703.8 253.464L438.057 514.666L429.645 506.107ZM695.388 244.906L686.976 236.348C696.429 227.057 696.561 211.862 687.269 202.409L695.828 193.997L704.386 185.585C722.968 204.492 722.706 234.882 703.8 253.464L695.388 244.906ZM695.828 193.997L687.27 202.409L653.622 168.176L662.18 159.765L670.738 151.353L704.386 185.585L695.828 193.997Z" fill="black" mask="url(#path-2-inside-1_10_363)"/>
</svg>
