<svg width="1084" height="1028" viewBox="0 0 1084 1028" fill="none" xmlns="http://www.w3.org/2000/svg">
    <path d="M551.529 16C690.539 16 824.354 81.8576 921.07 180.1C1017.87 278.422 1075.88 407.468 1066.08 532.247L1066.03 532.873V533.5C1066.03 808.861 811.538 1012 530.029 1012C390.192 1012 253.599 955.372 156.384 863.556C59.4057 771.963 2.24514 646.075 18.8613 506.865C67.0265 240.585 273.378 16 551.529 16Z" fill="#FF0000" stroke="black" stroke-width="32"/>
    <path d="M282.907 312.363C230.388 256.545 230.388 256.338 230.388 256.132C233.288 252.975 257.346 230.473 280.655 209.946C288.413 203.25 294.466 198.764 300.385 195C300.791 195 320.315 215.636 362.339 256.049C401.964 294.154 500.724 390.602 553.625 440.391C561.73 433.411 592.528 404.269 635.803 368.731C664.246 345.373 702.45 307.208 725.036 285.252C769.211 241.926 807.125 196.555 811.625 200.525C820.125 208.025 863.169 254.96 874.685 267.443C870.555 274.324 861.625 291.025 834.625 317.025C806.719 343.898 782.871 368.91 752.125 401.025C732.625 421.394 727.625 424.025 680.625 465.025C657.467 485.227 630.198 510.525 630.408 510.525C663.817 543.16 716.263 598.537 743.594 627.17C785.13 670.684 810.025 693.926 827.125 711.025C836.625 720.525 889.625 766.525 885.125 771.025C880.625 775.525 878.125 777.525 874.625 781.025C870.449 785.201 860.625 793.525 849.125 804.025C838.92 813.342 824.125 825.525 814.625 833.525C811.062 836.525 787.703 814.498 785.125 812.525C780.133 808.461 766.087 794.648 724.521 757.11C703.665 740.502 690.777 731.499 663.787 705.657C639.164 682.081 603.855 649.345 527.125 570.025C521.215 574.316 483.201 603.721 456.047 626.506C427.664 645.814 395.12 670.599 369.979 693.095C340.424 719.541 313.338 740.26 300.546 751.731C289.858 761.314 275.986 777.727 256.483 785.923C249.333 788.927 245.524 786.92 240.129 781.714L239.224 780.84C215.727 758.168 190.121 733.46 200.292 719.096C206.252 710.678 213.53 703.34 222.496 696.057C236.1 685.004 262.362 660.484 312.773 617.204C344.234 590.195 388.118 554.919 412.096 532.745C442.553 504.58 453.719 493.245 454.125 493.245C394.384 430.278 315.076 346.552 282.907 312.363Z" fill="#FFD1D1" stroke="black" stroke-width="2" stroke-linecap="round"/>
</svg>
