<svg width="2115" height="416" viewBox="0 0 2115 416" fill="none" xmlns="http://www.w3.org/2000/svg">
    <path d="M71.4524 33.8996C117.036 18.9133 312.15 11.9717 393.449 10.5H393.449C404.27 10.5 415.673 10.5 425.376 11.643C435.078 12.7859 443.719 15.0046 458.004 16.137C520.822 19.1275 539.986 25.3493 645.386 24.9271C699.365 24.7109 792.428 22.2134 1010.85 20.9762C1229.28 19.739 1563.07 14.2994 1735.51 20.8292C1953.06 29.0672 2036.29 10.2758 2057.57 43.1955C2077.82 74.5124 2146.15 286.807 2065.09 351.336C2057.15 357.655 2046.17 361.111 1887.43 362.494C1728.69 363.878 1431.2 363.209 1256.49 365.539C1081.78 367.87 1031.38 373.043 888.027 379.673C744.679 386.303 515.37 395.837 394.349 397.285C261.097 398.878 38.3024 432.766 24.1804 343.994C15.107 286.959 -18.4958 63.4714 71.4524 33.8996Z" fill="#D62400" stroke="black" stroke-width="21" stroke-linecap="round"/>
</svg>
