<svg width="1084" height="1028" viewBox="0 0 1084 1028" fill="none" xmlns="http://www.w3.org/2000/svg">
    <path d="M551.529 16C690.539 16 824.354 81.8576 921.07 180.1C1017.87 278.422 1075.88 407.468 1066.08 532.247L1066.03 532.873V533.5C1066.03 808.861 811.538 1012 530.029 1012C390.192 1012 253.599 955.372 156.384 863.556C59.4057 771.963 2.24514 646.075 18.8613 506.865C67.0265 240.585 273.378 16 551.529 16Z" stroke="black" stroke-width="32"/>
    <mask id="path-2-inside-1_6_343" fill="white">
        <path d="M420.973 159.765C434.91 145.585 457.703 145.388 471.883 159.325L759.314 441.845C761.115 443.081 762.83 444.497 764.431 446.098L798.372 480.039C800.205 481.873 801.797 483.856 803.152 485.947C812.526 499.844 811.161 518.869 798.955 531.287L765.308 565.52C763.121 567.744 760.717 569.624 758.162 571.159L474.517 854.806C460.458 868.864 437.664 868.864 423.605 854.806L389.664 820.864C375.605 806.806 375.605 784.011 389.664 769.952L653.508 506.108L387.765 244.906C373.585 230.969 373.388 208.177 387.325 193.997L420.973 159.765Z"/>
    </mask>
    <path d="M420.973 159.765C434.91 145.585 457.703 145.388 471.883 159.325L759.314 441.845C761.115 443.081 762.83 444.497 764.431 446.098L798.372 480.039C800.205 481.873 801.797 483.856 803.152 485.947C812.526 499.844 811.161 518.869 798.955 531.287L765.308 565.52C763.121 567.744 760.717 569.624 758.162 571.159L474.517 854.806C460.458 868.864 437.664 868.864 423.605 854.806L389.664 820.864C375.605 806.806 375.605 784.011 389.664 769.952L653.508 506.108L387.765 244.906C373.585 230.969 373.388 208.177 387.325 193.997L420.973 159.765Z" fill="#008C2A"/>
    <path d="M420.973 159.765L429.531 168.177L429.531 168.177L420.973 159.765ZM471.883 159.325L480.295 150.767L480.295 150.767L471.883 159.325ZM759.314 441.845L750.903 450.403L751.655 451.142L752.524 451.739L759.314 441.845ZM798.372 480.039L806.857 471.554L806.857 471.554L798.372 480.039ZM803.152 485.947L793.081 492.472L793.142 492.566L793.204 492.658L803.152 485.947ZM798.955 531.287L807.513 539.699L807.513 539.699L798.955 531.287ZM765.308 565.52L773.866 573.932L773.866 573.932L765.308 565.52ZM758.162 571.159L751.98 560.874L750.718 561.633L749.677 562.674L758.162 571.159ZM474.517 854.806L483.002 863.291L483.002 863.291L474.517 854.806ZM423.605 854.806L415.12 863.291L415.12 863.291L423.605 854.806ZM389.664 820.864L381.179 829.35L389.664 820.864ZM389.664 769.952L398.149 778.438L398.149 778.438L389.664 769.952ZM653.508 506.108L661.993 514.593L670.552 506.034L661.92 497.55L653.508 506.108ZM387.765 244.906L379.353 253.465L379.353 253.465L387.765 244.906ZM387.325 193.997L378.767 185.585L378.767 185.586L387.325 193.997ZM420.973 159.765L429.531 168.177C438.823 158.723 454.018 158.592 463.471 167.883L471.883 159.325L480.295 150.767C461.388 132.184 430.997 132.447 412.415 151.353L420.973 159.765ZM471.883 159.325L463.471 167.883L750.903 450.403L759.314 441.845L767.726 433.287L480.295 150.767L471.883 159.325ZM759.314 441.845L752.524 451.739C753.727 452.565 754.873 453.511 755.945 454.583L764.431 446.098L772.916 437.613C770.787 435.484 768.504 433.597 766.105 431.951L759.314 441.845ZM764.431 446.098L755.945 454.583L789.887 488.525L798.372 480.039L806.857 471.554L772.916 437.613L764.431 446.098ZM798.372 480.039L789.887 488.524C791.114 489.752 792.177 491.076 793.081 492.472L803.152 485.947L813.223 479.423C811.418 476.635 809.296 473.993 806.857 471.554L798.372 480.039ZM803.152 485.947L793.204 492.658C799.451 501.918 798.524 514.607 790.397 522.875L798.955 531.287L807.513 539.699C823.798 523.131 825.602 497.77 813.101 479.237L803.152 485.947ZM798.955 531.287L790.397 522.875L756.75 557.108L765.308 565.52L773.866 573.932L807.513 539.699L798.955 531.287ZM765.308 565.52L756.75 557.108C755.28 558.603 753.675 559.855 751.98 560.874L758.162 571.159L764.344 581.445C767.758 579.392 770.963 576.885 773.866 573.932L765.308 565.52ZM758.162 571.159L749.677 562.674L466.031 846.321L474.517 854.806L483.002 863.291L766.647 579.645L758.162 571.159ZM474.517 854.806L466.031 846.32C456.659 855.693 441.463 855.693 432.091 846.32L423.605 854.806L415.12 863.291C433.865 882.036 464.257 882.036 483.002 863.291L474.517 854.806ZM423.605 854.806L432.091 846.321L398.149 812.379L389.664 820.864L381.179 829.35L415.12 863.291L423.605 854.806ZM389.664 820.864L398.149 812.379C388.777 803.007 388.777 787.81 398.149 778.438L389.664 769.952L381.179 761.467C362.434 780.212 362.434 810.605 381.179 829.35L389.664 820.864ZM389.664 769.952L398.149 778.438L661.993 514.593L653.508 506.108L645.023 497.622L381.179 761.467L389.664 769.952ZM653.508 506.108L661.92 497.55L396.177 236.348L387.765 244.906L379.353 253.465L645.096 514.666L653.508 506.108ZM387.765 244.906L396.177 236.348C386.723 227.057 386.592 211.862 395.883 202.409L387.325 193.997L378.767 185.586C360.184 204.492 360.447 234.882 379.353 253.465L387.765 244.906ZM387.325 193.997L395.883 202.409L429.531 168.177L420.973 159.765L412.415 151.353L378.767 185.585L387.325 193.997Z" fill="black" mask="url(#path-2-inside-1_6_343)"/>
</svg>
