<svg width="2136" height="2136" viewBox="0 0 2136 2136" fill="none" xmlns="http://www.w3.org/2000/svg">
    <path d="M1043.21 15.0601C1076.31 10.2374 1111.03 8.53797 1141.93 13.4438C1172.76 18.3374 1201.06 30.0265 1219.47 53.1479C1224.78 59.8195 1227.31 67.4557 1229.15 91.1558C1231.01 115.152 1232.22 157.938 1232.91 237.256C1234.3 396.317 1233.62 693.352 1235.95 868.144C1236.1 878.834 1236.25 889.056 1236.41 898.862C1246.22 899.025 1256.44 899.179 1267.13 899.322C1441.92 901.653 1738.96 900.979 1898.02 902.366C1977.34 903.057 2020.12 904.266 2044.12 906.125C2067.82 907.962 2075.46 910.498 2082.13 915.808C2105.25 934.213 2116.94 962.517 2121.83 993.343C2126.74 1024.25 2125.04 1058.97 2120.21 1092.06C2115.38 1125.24 2107.33 1157.28 2099.2 1183.04C2091.2 1208.42 2082.79 1228.75 2076.89 1237.87C2069.38 1249.49 2056.95 1255.41 2041.53 1258.66C2026.2 1261.9 2006.05 1262.88 1980.74 1263.1C1929.5 1263.55 1855.04 1260.91 1746.41 1265.02C1627.68 1269.52 1432.65 1268.35 1251.47 1266.78C1257.97 1410.43 1266.35 1617.35 1267.7 1730.3C1268.09 1763.34 1270.49 1801.92 1272.52 1841.96C1274.53 1881.82 1276.16 1922.99 1274.94 1960.53C1273.71 1997.88 1269.64 2032.61 1259.75 2059.2C1249.82 2085.91 1233.06 2106.59 1205.56 2110.96C1177.01 2115.51 1106.04 2126.32 1038.29 2124.59C1004.48 2123.72 970.7 2119.72 943.167 2109.81C915.672 2099.92 892.664 2083.44 883.84 2056.6C879.698 2044 876.373 2022.2 873.603 1996.33C870.796 1970.12 868.465 1938.73 866.564 1906.33C862.762 1841.52 860.655 1772.27 859.917 1731.52L859.915 1731.42V1731.33C859.915 1720.67 859.901 1708.61 861.13 1698.17C861.737 1693.01 862.649 1688.01 863.445 1683.12C864.254 1678.15 865.038 1672.77 865.572 1666.1C868.624 1602.19 874.763 1584.54 874.342 1479.43C874.181 1439.4 872.799 1379.41 871.583 1263.69C755.863 1262.48 695.878 1261.09 655.844 1260.93C550.731 1260.51 533.082 1266.65 469.177 1269.7C462.503 1270.24 457.127 1271.02 452.157 1271.83C447.263 1272.63 442.261 1273.54 437.104 1274.15C426.669 1275.37 414.604 1275.36 403.949 1275.36H403.854L403.759 1275.36C363.004 1274.62 293.755 1272.51 228.942 1268.71C196.543 1266.81 165.153 1264.48 138.944 1261.67C113.073 1258.9 91.2711 1255.58 78.6728 1251.44C51.8332 1242.61 35.3582 1219.6 25.4638 1192.11C15.5559 1164.57 11.5528 1130.8 10.6865 1096.98C8.95097 1029.23 19.7686 958.267 24.3105 929.716C28.6857 902.214 49.3658 885.458 76.0781 875.523C102.669 865.633 137.392 861.562 174.748 860.339C212.284 859.111 253.45 860.745 293.311 862.759C333.357 864.783 371.93 867.181 404.976 867.576C517.922 868.926 724.839 877.303 868.492 883.802C866.922 702.622 865.756 507.596 870.252 388.865C874.365 280.235 871.72 205.775 872.172 154.54C872.395 129.22 873.376 109.072 876.612 93.7407C879.867 78.3228 885.79 65.8951 897.409 58.3823C906.525 52.4882 926.857 44.0776 952.235 36.0708C977.992 27.9445 1010.04 19.8946 1043.21 15.0601Z" fill="#009130"/>
    <path d="M1043.21 15.0601L1041.7 4.66981L1041.7 4.66981L1043.21 15.0601ZM1141.93 13.4438L1143.58 3.0737L1143.58 3.0737L1141.93 13.4438ZM1219.47 53.1479L1227.68 46.6087L1227.68 46.6087L1219.47 53.1479ZM1229.15 91.1558L1239.62 90.3448L1239.62 90.3447L1229.15 91.1558ZM1232.91 237.256L1243.41 237.165L1243.41 237.165L1232.91 237.256ZM1235.95 868.144L1225.45 868.284L1225.45 868.284L1235.95 868.144ZM1236.41 898.862L1225.91 899.037L1226.08 909.191L1236.24 909.36L1236.41 898.862ZM1267.13 899.322L1266.99 909.821L1266.99 909.821L1267.13 899.322ZM1898.02 902.366L1898.11 891.866L1898.11 891.866L1898.02 902.366ZM2044.12 906.125L2044.93 895.657L2044.93 895.657L2044.12 906.125ZM2082.13 915.808L2088.67 907.593L2088.67 907.593L2082.13 915.808ZM2121.83 993.343L2132.2 991.697L2132.2 991.697L2121.83 993.343ZM2120.21 1092.06L2130.61 1093.58L2130.61 1093.58L2120.21 1092.06ZM2099.2 1183.04L2109.22 1186.2L2109.22 1186.2L2099.2 1183.04ZM2076.89 1237.87L2085.71 1243.57L2085.71 1243.57L2076.89 1237.87ZM2041.53 1258.66L2043.7 1268.94L2043.7 1268.94L2041.53 1258.66ZM1980.74 1263.1L1980.83 1273.6L1980.83 1273.6L1980.74 1263.1ZM1746.41 1265.02L1746.81 1275.52L1746.81 1275.52L1746.41 1265.02ZM1251.47 1266.78L1251.56 1256.28L1240.48 1256.19L1240.98 1267.26L1251.47 1266.78ZM1267.7 1730.3L1278.2 1730.17L1267.7 1730.3ZM1272.52 1841.96L1283 1841.43L1283 1841.43L1272.52 1841.96ZM1274.94 1960.53L1285.43 1960.87L1285.43 1960.87L1274.94 1960.53ZM1259.75 2059.2L1269.59 2062.86L1269.59 2062.86L1259.75 2059.2ZM1205.56 2110.96L1207.21 2121.33L1207.21 2121.33L1205.56 2110.96ZM1038.29 2124.59L1038.03 2135.08L1038.03 2135.08L1038.29 2124.59ZM943.167 2109.81L939.612 2119.69L939.612 2119.69L943.167 2109.81ZM883.84 2056.6L873.865 2059.88L873.865 2059.88L883.84 2056.6ZM873.603 1996.33L863.162 1997.45L863.162 1997.45L873.603 1996.33ZM866.564 1906.33L856.082 1906.95L856.082 1906.95L866.564 1906.33ZM859.917 1731.52L870.415 1731.33L870.415 1731.31L870.415 1731.3L859.917 1731.52ZM859.915 1731.42H849.415V1731.53L849.417 1731.63L859.915 1731.42ZM861.13 1698.17L850.702 1696.94L850.702 1696.94L861.13 1698.17ZM863.445 1683.12L873.809 1684.8L873.809 1684.8L863.445 1683.12ZM865.572 1666.1L876.039 1666.94L876.052 1666.77L876.06 1666.6L865.572 1666.1ZM874.342 1479.43L884.842 1479.39L884.842 1479.39L874.342 1479.43ZM871.583 1263.69L882.082 1263.58L881.974 1253.3L871.693 1253.19L871.583 1263.69ZM655.844 1260.93L655.886 1250.43L655.886 1250.43L655.844 1260.93ZM469.177 1269.7L468.676 1259.21L468.507 1259.22L468.338 1259.24L469.177 1269.7ZM452.157 1271.83L450.471 1261.47L450.471 1261.47L452.157 1271.83ZM437.104 1274.15L438.333 1284.57L438.333 1284.57L437.104 1274.15ZM403.854 1275.36L403.64 1285.86L403.747 1285.86H403.854V1275.36ZM403.759 1275.36L403.973 1264.86L403.961 1264.86L403.949 1264.86L403.759 1275.36ZM228.942 1268.71L228.327 1279.19L228.327 1279.19L228.942 1268.71ZM138.944 1261.67L137.826 1272.11L137.826 1272.11L138.944 1261.67ZM78.6728 1251.44L75.3934 1261.41L75.3935 1261.41L78.6728 1251.44ZM25.4638 1192.11L15.5841 1195.66L15.5841 1195.66L25.4638 1192.11ZM10.6865 1096.98L0.189929 1097.25L0.189929 1097.25L10.6865 1096.98ZM24.3105 929.716L13.9409 928.067L13.9409 928.067L24.3105 929.716ZM76.0781 875.523L72.4177 865.682L72.4177 865.682L76.0781 875.523ZM174.748 860.339L174.405 849.845L174.405 849.845L174.748 860.339ZM293.311 862.759L293.841 852.273L293.841 852.273L293.311 862.759ZM404.976 867.576L404.85 878.075L404.85 878.075L404.976 867.576ZM868.492 883.802L868.018 894.292L879.088 894.792L878.992 883.711L868.492 883.802ZM870.252 388.865L859.759 388.467L859.759 388.467L870.252 388.865ZM872.172 154.54L861.672 154.447L861.672 154.447L872.172 154.54ZM876.612 93.7407L866.339 91.5721L866.339 91.5722L876.612 93.7407ZM897.409 58.3823L891.708 49.5649L891.708 49.5649L897.409 58.3823ZM952.235 36.0708L949.076 26.0573L949.076 26.0573L952.235 36.0708ZM1043.21 15.0601L1044.73 25.4503C1077.25 20.7102 1110.82 19.1364 1140.29 23.814L1141.93 13.4438L1143.58 3.0737C1111.24 -2.06046 1075.36 -0.235376 1041.7 4.66981L1043.21 15.0601ZM1141.93 13.4438L1140.29 23.814C1169.76 28.4922 1195.12 39.4228 1211.25 59.6872L1219.47 53.1479L1227.68 46.6087C1207 20.6303 1175.76 8.18252 1143.58 3.0737L1141.93 13.4438ZM1219.47 53.1479L1211.25 59.6872C1214.42 63.662 1216.86 68.4036 1218.68 91.9668L1229.15 91.1558L1239.62 90.3447C1237.77 66.5078 1235.14 55.9769 1227.68 46.6087L1219.47 53.1479ZM1229.15 91.1558L1218.68 91.9668C1220.51 115.547 1221.72 157.978 1222.41 237.348L1232.91 237.256L1243.41 237.165C1242.72 157.897 1241.51 114.757 1239.62 90.3448L1229.15 91.1558ZM1232.91 237.256L1222.41 237.348C1223.79 396.089 1223.12 693.575 1225.45 868.284L1235.95 868.144L1246.45 868.004C1244.12 693.13 1244.8 396.545 1243.41 237.165L1232.91 237.256ZM1235.95 868.144L1225.45 868.284C1225.6 878.984 1225.75 889.219 1225.91 899.037L1236.41 898.862L1246.91 898.687C1246.75 888.894 1246.59 878.683 1246.45 868.004L1235.95 868.144ZM1236.41 898.862L1236.24 909.36C1246.05 909.524 1256.29 909.678 1266.99 909.821L1267.13 899.322L1267.27 888.823C1256.59 888.68 1246.38 888.527 1236.59 888.363L1236.41 898.862ZM1267.13 899.322L1266.99 909.821C1441.7 912.151 1739.19 911.482 1897.93 912.865L1898.02 902.366L1898.11 891.866C1738.73 890.477 1442.15 891.155 1267.27 888.823L1267.13 899.322ZM1898.02 902.366L1897.93 912.865C1977.3 913.557 2019.73 914.767 2043.31 916.594L2044.12 906.125L2044.93 895.657C2020.52 893.766 1977.38 892.557 1898.11 891.866L1898.02 902.366ZM2044.12 906.125L2043.31 916.594C2066.87 918.42 2071.61 920.859 2075.59 924.023L2082.13 915.808L2088.67 907.593C2079.3 900.136 2068.77 897.504 2044.93 895.657L2044.12 906.125ZM2082.13 915.808L2075.59 924.023C2095.85 940.154 2106.78 965.52 2111.46 994.989L2121.83 993.343L2132.2 991.697C2127.09 959.515 2114.64 928.272 2088.67 907.593L2082.13 915.808ZM2121.83 993.343L2111.46 994.989C2116.14 1024.46 2114.56 1058.02 2109.82 1090.55L2120.21 1092.06L2130.61 1093.58C2135.51 1059.92 2137.34 1024.04 2132.2 991.697L2121.83 993.343ZM2120.21 1092.06L2109.82 1090.55C2105.08 1123.08 2097.18 1154.57 2089.19 1179.88L2099.2 1183.04L2109.22 1186.2C2117.48 1160 2125.68 1127.4 2130.61 1093.58L2120.21 1092.06ZM2099.2 1183.04L2089.19 1179.88C2081.2 1205.19 2073.14 1224.33 2068.08 1232.16L2076.89 1237.87L2085.71 1243.57C2092.44 1233.16 2101.19 1211.64 2109.22 1186.2L2099.2 1183.04ZM2076.89 1237.87L2068.08 1232.16C2062.76 1240.39 2053.57 1245.39 2039.37 1248.39L2041.53 1258.66L2043.7 1268.94C2060.33 1265.43 2076 1258.58 2085.71 1243.57L2076.89 1237.87ZM2041.53 1258.66L2039.37 1248.39C2025.17 1251.39 2005.97 1252.38 1980.64 1252.6L1980.74 1263.1L1980.83 1273.6C2006.14 1273.38 2027.24 1272.41 2043.7 1268.94L2041.53 1258.66ZM1980.74 1263.1L1980.64 1252.6C1929.98 1253.05 1854.79 1250.41 1746.01 1254.53L1746.41 1265.02L1746.81 1275.52C1855.29 1271.41 1929.02 1274.06 1980.83 1273.6L1980.74 1263.1ZM1746.41 1265.02L1746.01 1254.53C1627.58 1259.02 1432.83 1257.85 1251.56 1256.28L1251.47 1266.78L1251.38 1277.28C1432.47 1278.85 1627.78 1280.02 1746.81 1275.52L1746.41 1265.02ZM1251.47 1266.78L1240.98 1267.26C1247.48 1410.93 1255.85 1617.68 1257.2 1730.42L1267.7 1730.3L1278.2 1730.17C1276.85 1617.02 1268.46 1409.94 1261.96 1266.31L1251.47 1266.78ZM1267.7 1730.3L1257.2 1730.42C1257.6 1763.74 1260.02 1802.65 1262.03 1842.49L1272.52 1841.96L1283 1841.43C1280.97 1801.19 1278.59 1762.95 1278.2 1730.17L1267.7 1730.3ZM1272.52 1841.96L1262.03 1842.49C1264.04 1882.34 1265.65 1923.12 1264.44 1960.18L1274.94 1960.53L1285.43 1960.87C1286.67 1922.86 1285.02 1881.31 1283 1841.43L1272.52 1841.96ZM1274.94 1960.53L1264.44 1960.18C1263.23 1997.24 1259.19 2030.58 1249.91 2055.54L1259.75 2059.2L1269.59 2062.86C1280.09 2034.63 1284.2 1998.52 1285.43 1960.87L1274.94 1960.53ZM1259.75 2059.2L1249.91 2055.54C1240.62 2080.52 1226.08 2097.07 1203.91 2100.59L1205.56 2110.96L1207.21 2121.33C1240.04 2116.11 1259.01 2091.3 1269.59 2062.86L1259.75 2059.2ZM1205.56 2110.96L1203.91 2100.59C1175.39 2105.13 1105.26 2115.8 1038.56 2114.09L1038.29 2124.59L1038.03 2135.08C1106.82 2136.85 1178.62 2125.88 1207.21 2121.33L1205.56 2110.96ZM1038.29 2124.59L1038.56 2114.09C1005.21 2113.24 972.724 2109.29 946.722 2099.93L943.167 2109.81L939.612 2119.69C968.676 2130.15 1003.74 2134.21 1038.03 2135.08L1038.29 2124.59ZM943.167 2109.81L946.722 2099.93C920.709 2090.57 901.205 2075.8 893.815 2053.32L883.84 2056.6L873.865 2059.88C884.123 2091.08 910.634 2109.26 939.612 2119.69L943.167 2109.81ZM883.84 2056.6L893.815 2053.32C890.068 2041.93 886.824 2021.18 884.043 1995.21L873.603 1996.33L863.162 1997.45C865.922 2023.22 869.328 2046.08 873.865 2059.88L883.84 2056.6ZM873.603 1996.33L884.043 1995.21C881.262 1969.24 878.943 1938.04 877.046 1905.72L866.564 1906.33L856.082 1906.95C857.988 1939.43 860.33 1971 863.162 1997.45L873.603 1996.33ZM866.564 1906.33L877.046 1905.72C873.254 1841.08 871.151 1771.98 870.415 1731.33L859.917 1731.52L849.419 1731.71C850.158 1772.57 852.269 1841.96 856.082 1906.95L866.564 1906.33ZM859.917 1731.52L870.415 1731.3L870.413 1731.21L859.915 1731.42L849.417 1731.63L849.419 1731.73L859.917 1731.52ZM859.915 1731.42H870.415V1731.33H859.915H849.415V1731.42H859.915ZM859.915 1731.33H870.415C870.415 1720.51 870.415 1709.1 871.558 1699.4L861.13 1698.17L850.702 1696.94C849.386 1708.11 849.415 1720.83 849.415 1731.33H859.915ZM861.13 1698.17L871.558 1699.4C872.129 1694.55 872.971 1689.96 873.809 1684.8L863.445 1683.12L853.081 1681.43C852.327 1686.07 851.345 1691.48 850.702 1696.94L861.13 1698.17ZM863.445 1683.12L873.809 1684.8C874.642 1679.69 875.473 1674 876.039 1666.94L865.572 1666.1L855.106 1665.26C854.603 1671.54 853.866 1676.61 853.081 1681.43L863.445 1683.12ZM865.572 1666.1L876.06 1666.6C879.053 1603.93 885.263 1584.69 884.842 1479.39L874.342 1479.43L863.842 1479.47C864.262 1584.39 858.195 1600.46 855.084 1665.6L865.572 1666.1ZM874.342 1479.43L884.842 1479.39C884.681 1439.35 883.296 1379.09 882.082 1263.58L871.583 1263.69L861.084 1263.8C862.302 1379.74 863.681 1439.44 863.842 1479.47L874.342 1479.43ZM871.583 1263.69L871.693 1253.19C756.189 1251.98 695.922 1250.59 655.886 1250.43L655.844 1260.93L655.802 1271.43C695.834 1271.59 755.538 1272.97 871.473 1274.19L871.583 1263.69ZM655.844 1260.93L655.886 1250.43C550.582 1250.01 531.346 1256.22 468.676 1259.21L469.177 1269.7L469.678 1280.19C534.817 1277.08 550.88 1271.01 655.802 1271.43L655.844 1260.93ZM469.177 1269.7L468.338 1259.24C461.273 1259.8 455.589 1260.63 450.471 1261.47L452.157 1271.83L453.843 1282.19C458.664 1281.41 463.733 1280.67 470.015 1280.17L469.177 1269.7ZM452.157 1271.83L450.471 1261.47C445.319 1262.3 440.727 1263.15 435.876 1263.72L437.104 1274.15L438.333 1284.57C443.794 1283.93 449.207 1282.95 453.843 1282.19L452.157 1271.83ZM437.104 1274.15L435.876 1263.72C426.173 1264.86 414.766 1264.86 403.949 1264.86V1275.36V1285.86C414.441 1285.86 427.165 1285.89 438.333 1284.57L437.104 1274.15ZM403.949 1275.36V1264.86H403.854V1275.36V1285.86H403.949V1275.36ZM403.854 1275.36L404.069 1264.86L403.973 1264.86L403.759 1275.36L403.545 1285.86L403.64 1285.86L403.854 1275.36ZM403.759 1275.36L403.949 1264.86C363.299 1264.12 294.196 1262.02 229.557 1258.23L228.942 1268.71L228.327 1279.19C293.314 1283.01 362.71 1285.12 403.569 1285.86L403.759 1275.36ZM228.942 1268.71L229.557 1258.23C197.238 1256.33 166.035 1254.01 140.062 1251.23L138.944 1261.67L137.826 1272.11C164.271 1274.94 195.848 1277.29 228.327 1279.19L228.942 1268.71ZM138.944 1261.67L140.062 1251.23C114.094 1248.45 93.3493 1245.21 81.9522 1241.46L78.6728 1251.44L75.3935 1261.41C89.1928 1265.95 112.052 1269.35 137.826 1272.11L138.944 1261.67ZM78.6728 1251.44L81.9523 1241.46C59.4733 1234.07 44.7045 1214.57 35.3436 1188.55L25.4638 1192.11L15.5841 1195.66C26.0119 1224.64 44.1932 1251.15 75.3934 1261.41L78.6728 1251.44ZM25.4638 1192.11L35.3436 1188.55C25.9867 1162.55 22.0373 1130.06 21.183 1096.71L10.6865 1096.98L0.189929 1097.25C1.06827 1131.54 5.12503 1166.6 15.5841 1195.66L25.4638 1192.11ZM10.6865 1096.98L21.183 1096.71C19.4744 1030.01 30.1435 959.883 34.6801 931.366L24.3105 929.716L13.9409 928.067C9.39367 956.651 -1.5725 1028.45 0.189929 1097.25L10.6865 1096.98ZM24.3105 929.716L34.6801 931.366C38.2078 909.192 54.7582 894.655 79.7385 885.364L76.0781 875.523L72.4177 865.682C43.9735 876.261 19.1637 895.237 13.9409 928.067L24.3105 929.716ZM76.0781 875.523L79.7384 885.364C104.694 876.082 138.033 872.046 175.091 870.834L174.748 860.339L174.405 849.845C136.751 851.077 100.644 855.183 72.4177 865.682L76.0781 875.523ZM174.748 860.339L175.091 870.834C212.151 869.621 252.935 871.232 292.78 873.246L293.311 862.759L293.841 852.273C253.965 850.257 212.417 848.601 174.405 849.845L174.748 860.339ZM293.311 862.759L292.78 873.246C332.626 875.26 371.537 877.677 404.85 878.075L404.976 867.576L405.101 857.076C372.323 856.684 334.089 854.307 293.841 852.273L293.311 862.759ZM404.976 867.576L404.85 878.075C517.594 879.423 724.34 887.791 868.018 894.292L868.492 883.802L868.967 873.313C725.338 866.815 518.25 858.429 405.101 857.076L404.976 867.576ZM868.492 883.802L878.992 883.711C877.421 702.445 876.26 507.695 880.744 389.262L870.252 388.865L859.759 388.467C855.252 507.497 856.423 702.8 857.993 883.893L868.492 883.802ZM870.252 388.865L880.744 389.262C884.863 280.489 882.225 205.291 882.671 154.632L872.172 154.54L861.672 154.447C861.215 206.258 863.868 279.981 859.759 388.467L870.252 388.865ZM872.172 154.54L882.671 154.632C882.895 129.304 883.889 110.105 886.886 95.9092L876.612 93.7407L866.339 91.5722C862.863 108.04 861.896 129.135 861.672 154.447L872.172 154.54ZM876.612 93.7407L886.886 95.9093C889.884 81.7039 894.886 72.5172 903.11 67.1997L897.409 58.3823L891.708 49.5649C876.694 59.2729 869.849 74.9417 866.339 91.5721L876.612 93.7407ZM897.409 58.3823L903.11 67.1998C910.94 62.137 930.083 54.07 955.395 46.0843L952.235 36.0708L949.076 26.0573C923.631 34.0851 902.11 42.8393 891.708 49.5649L897.409 58.3823ZM952.235 36.0708L955.395 46.0843C980.709 38.0975 1012.2 30.1904 1044.73 25.4503L1043.21 15.0601L1041.7 4.66981C1007.87 9.59886 975.276 17.7916 949.076 26.0573L952.235 36.0708Z" fill="black"/>
</svg>
