<svg width="2697" height="2592" viewBox="0 0 2697 2592" fill="none" xmlns="http://www.w3.org/2000/svg">
    <path d="M2523.51 1083.51C2510.27 1445.35 2544.87 1938.3 2570.85 2240.36C2582.43 2375.11 2461.35 2485.3 2328.09 2462.21C2146.61 2430.77 1907.15 2393.75 1721.51 2381.01C1293.63 2351.64 705.519 2420.57 364.471 2469.17C228.842 2488.49 109.765 2371.34 126.432 2235.36C165.591 1915.85 217.913 1384.44 191.007 996.011C179.403 828.479 147.607 608.825 122.57 451.786C105.043 341.858 178.296 237.645 288.448 221.583C580.687 178.968 1133.7 108.796 1532.01 121.511C1810.02 130.386 2188.25 185.247 2410.98 221.102C2515.44 237.919 2586.71 334.325 2575.49 439.537C2556.62 616.429 2530.81 883.812 2523.51 1083.51Z" stroke="white" stroke-width="240"/>
</svg>
